<svg width="85" height="30" viewBox="0 0 85 30" fill="none" xmlns="http://www.w3.org/2000/svg">
<g clip-path="url(#clip0_1_55618)">
<path d="M9.52 12.144H11.072C10.864 14.336 9.152 16.192 6.176 16.192C2.752 16.192 0.688 13.712 0.688 10.272C0.688 6.928 2.656 4.368 6.16 4.368C9.2 4.368 10.848 6.288 11.008 8.496H9.472C9.328 6.944 8.112 5.696 6.112 5.696C3.696 5.696 2.288 7.568 2.288 10.256C2.288 12.992 3.696 14.864 6.128 14.864C8.112 14.864 9.328 13.664 9.52 12.144ZM14.7089 4.56V14.688H19.8449V16H13.1729V4.56H14.7089ZM25.907 16.192C22.499 16.192 20.563 13.696 20.563 10.24C20.563 6.864 22.499 4.368 25.907 4.368C29.331 4.368 31.203 6.864 31.203 10.24C31.203 13.696 29.331 16.192 25.907 16.192ZM25.907 14.864C28.275 14.864 29.603 13.056 29.603 10.24C29.603 7.504 28.275 5.696 25.907 5.696C23.555 5.696 22.163 7.504 22.163 10.24C22.163 13.056 23.555 14.864 25.907 14.864ZM37.0746 16.192C34.3066 16.192 32.5306 14.688 32.5306 12.352H34.0346C34.0826 13.872 35.2506 14.864 37.0906 14.864C38.7546 14.864 39.6826 14.128 39.6826 12.96C39.6826 11.76 39.0106 11.28 36.6106 10.688C33.9706 10.048 32.9146 9.136 32.9146 7.504C32.9146 5.584 34.4506 4.368 36.8986 4.368C39.2986 4.368 40.8666 5.728 40.8666 7.792H39.3946C39.3306 6.528 38.5306 5.696 36.8026 5.696C35.1866 5.696 34.3866 6.416 34.3866 7.36C34.3866 8.4 35.0746 8.832 37.3946 9.456C40.0826 10.176 41.2186 10.976 41.2186 12.832C41.2186 14.944 39.7306 16.192 37.0746 16.192ZM51.2004 4.56V5.872H44.8964V9.568H50.2404V10.88H44.8964V14.672H51.2004V16H43.3604V4.56H51.2004Z" fill="#010101"/>
<mask id="mask0_1_55618" style="mask-type:alpha" maskUnits="userSpaceOnUse" x="65" y="0" width="20" height="20">
<rect x="65" width="20" height="20" fill="#D9D9D9"/>
</mask>
<g mask="url(#mask0_1_55618)">
<path d="M74.208 10.0001L69.6543 5.44631L70.4462 4.65435L75 9.20812L79.5538 4.65435L80.3457 5.44631L75.792 10.0001L80.3457 14.5538L79.5538 15.3458L75 10.792L70.4462 15.3458L69.6543 14.5538L74.208 10.0001Z" fill="#1C1B1F"/>
</g>
<line y1="29.5" x2="85" y2="29.5" stroke="#010101"/>
</g>
<defs>
<clipPath id="clip0_1_55618">
<rect width="85" height="30" fill="white"/>
</clipPath>
</defs>
</svg>
